<?xml version="1.0" encoding="UTF-8" standalone="no"?>
<!-- Created with Inkscape (http://www.inkscape.org/) -->

<svg
   xmlns:dc="http://purl.org/dc/elements/1.1/"
   xmlns:cc="http://creativecommons.org/ns#"
   xmlns:rdf="http://www.w3.org/1999/02/22-rdf-syntax-ns#"
   xmlns:svg="http://www.w3.org/2000/svg"
   xmlns="http://www.w3.org/2000/svg"
   xmlns:sodipodi="http://sodipodi.sourceforge.net/DTD/sodipodi-0.dtd"
   xmlns:inkscape="http://www.inkscape.org/namespaces/inkscape"
   width="92.163544mm"
   height="74.882729mm"
   viewBox="0 0 92.163552 74.88273"
   version="1.1"
   id="svg3505"
   inkscape:version="0.92.3 (2405546, 2018-03-11)"
   sodipodi:docname="baby_11.svg">
  <defs
     id="defs3499" />
  <sodipodi:namedview
     id="base"
     pagecolor="#ffffff"
     bordercolor="#666666"
     borderopacity="1.0"
     inkscape:pageopacity="0.0"
     inkscape:pageshadow="2"
     inkscape:zoom="0.35"
     inkscape:cx="336.33123"
     inkscape:cy="150.60981"
     inkscape:document-units="mm"
     inkscape:current-layer="layer1"
     showgrid="false"
     fit-margin-top="0"
     fit-margin-left="0"
     fit-margin-right="0"
     fit-margin-bottom="0"
     inkscape:window-width="1853"
     inkscape:window-height="1025"
     inkscape:window-x="67"
     inkscape:window-y="27"
     inkscape:window-maximized="1" />
  <metadata
     id="metadata3502">
    <rdf:RDF>
      <cc:Work
         rdf:about="">
        <dc:format>image/svg+xml</dc:format>
        <dc:type
           rdf:resource="http://purl.org/dc/dcmitype/StillImage" />
        <dc:title></dc:title>
      </cc:Work>
    </rdf:RDF>
  </metadata>
  <g
     inkscape:label="Capa 1"
     inkscape:groupmode="layer"
     id="layer1"
     transform="translate(-16.845696,-53.323263)">
    <g
       transform="matrix(0.35277777,0,0,-0.35277777,-295.07046,1707.4536)"
       id="g4946">
      <g
         transform="translate(1126.3652,4664.3809)"
         id="g478">
        <path
           inkscape:connector-curvature="0"
           id="path480"
           style="fill:#f8f4f0;fill-opacity:1;fill-rule:nonzero;stroke:none"
           d="M 0,0 V -4.082 H -7.246 C -8.122,1.826 -8.209,7.799 -7.557,13.722 -3.028,10.811 0,5.772 0,0" />
      </g>
      <g
         transform="translate(1102.7915,4660.2988)"
         id="g482">
        <path
           inkscape:connector-curvature="0"
           id="path484"
           style="fill:#f8f4f0;fill-opacity:1;fill-rule:nonzero;stroke:none"
           d="m 0,0 c -0.941,6.402 -0.982,12.873 -0.135,19.278 1.601,0.234 2.984,0.43 4.137,0.599 C 3.11,13.269 3.14,6.61 4.067,0 Z" />
      </g>
      <g
         transform="translate(1110.9565,4660.2988)"
         id="g486">
        <path
           inkscape:connector-curvature="0"
           id="path488"
           style="fill:#f8f4f0;fill-opacity:1;fill-rule:nonzero;stroke:none"
           d="M 0,0 C -1.004,6.753 -1.004,13.587 -0.01,20.339 1.372,20.262 2.688,19.987 3.956,19.591 3.118,13.081 3.155,6.507 4.049,0 Z" />
      </g>
      <g
         transform="translate(928.4995,4660.2988)"
         id="g490">
        <path
           inkscape:connector-curvature="0"
           id="path492"
           style="fill:#f8f4f0;fill-opacity:1;fill-rule:nonzero;stroke:none"
           d="m 0,0 h -4.057 c 0.932,6.647 0.951,13.37 0.048,20.027 1.092,-0.161 2.478,-0.365 4.131,-0.596 C 0.988,12.97 0.956,6.449 0,0" />
      </g>
      <g
         transform="translate(920.3364,4660.2988)"
         id="g494">
        <path
           inkscape:connector-curvature="0"
           id="path496"
           style="fill:#f8f4f0;fill-opacity:1;fill-rule:nonzero;stroke:none"
           d="m 0,0 h -4.057 c 0.892,6.402 0.932,12.858 0.133,19.271 1.253,0.486 2.576,0.787 3.946,0.948 C 1.004,13.507 1.004,6.714 0,0" />
      </g>
      <g
         transform="translate(905.9443,4664.3809)"
         id="g498">
        <path
           inkscape:connector-curvature="0"
           id="path500"
           style="fill:#f8f4f0;fill-opacity:1;fill-rule:nonzero;stroke:none"
           d="M 0,0 C 0,5.358 2.622,10.083 6.618,13.066 7.2,7.36 7.081,1.613 6.234,-4.082 H 0 Z" />
      </g>
      <g
         transform="translate(896.418,4623.5625)"
         id="g502">
        <path
           inkscape:connector-curvature="0"
           id="path504"
           style="fill:#f8f4f0;fill-opacity:1;fill-rule:nonzero;stroke:none"
           d="M 0,0 C -2.25,0 -4.083,1.831 -4.083,4.082 V 24.49 c 0,2.245 1.833,4.079 4.083,4.079 H 1.363 5.444 35.98 c 0.263,-1.615 0.851,-2.67 1.281,-3.432 0.346,-0.615 0.376,-0.673 0.376,-1.197 0,-0.542 -0.037,-0.608 -0.379,-1.22 -0.56,-1.004 -1.42,-2.53 -1.42,-5.198 0,-2.662 0.853,-4.195 1.42,-5.199 0.349,-0.621 0.373,-0.668 0.373,-1.203 0,-0.543 -0.031,-0.605 -0.373,-1.223 -0.567,-1.007 -1.42,-2.533 -1.42,-5.194 0,-2.28 0.605,-3.702 1.146,-4.703 L 5.444,0 H 1.363 Z" />
      </g>
      <g
         transform="translate(909.979,4565.4453)"
         id="g506">
        <path
           inkscape:connector-curvature="0"
           id="path508"
           style="fill:#f8f4f0;fill-opacity:1;fill-rule:nonzero;stroke:none"
           d="m 0,0 c 0.526,-0.048 1.06,-0.061 1.579,-0.107 1.15,-0.125 2.278,-0.292 3.414,-0.458 1.505,-0.223 3.004,-0.469 4.488,-0.765 1.114,-0.232 2.231,-0.478 3.331,-0.754 1.459,-0.361 2.903,-0.761 4.332,-1.192 1.072,-0.319 2.144,-0.652 3.204,-1.017 1.407,-0.487 2.808,-1.028 4.176,-1.59 1.021,-0.421 2.041,-0.818 3.043,-1.274 1.383,-0.625 2.722,-1.301 4.063,-1.985 0.937,-0.496 1.896,-0.964 2.828,-1.484 1.356,-0.773 2.663,-1.611 3.978,-2.449 0.845,-0.542 1.708,-1.053 2.527,-1.616 1.412,-0.971 2.767,-2.035 4.116,-3.087 0.651,-0.51 1.339,-0.989 1.977,-1.515 3.914,-3.244 7.534,-6.841 10.819,-10.724 0.541,-0.641 1.034,-1.337 1.563,-2.009 1.061,-1.325 2.112,-2.646 3.093,-4.039 0.58,-0.829 1.098,-1.701 1.659,-2.553 0.838,-1.283 1.672,-2.574 2.447,-3.904 0.541,-0.934 1.037,-1.916 1.539,-2.873 0.692,-1.308 1.369,-2.623 1.992,-3.969 0.47,-1.022 0.9,-2.066 1.332,-3.104 0.567,-1.348 1.108,-2.7 1.594,-4.088 0.383,-1.087 0.741,-2.17 1.075,-3.276 0.441,-1.395 0.837,-2.808 1.206,-4.243 0.288,-1.107 0.548,-2.247 0.789,-3.379 0.311,-1.459 0.565,-2.943 0.797,-4.418 0.183,-1.149 0.359,-2.295 0.495,-3.467 0.063,-0.52 0.079,-1.045 0.129,-1.562 C 40.065,-66.849 10.399,-37.435 0,0" />
      </g>
      <g
         transform="translate(996.0132,4486.6279)"
         id="g510">
        <path
           inkscape:connector-curvature="0"
           id="path512"
           style="fill:#f8f4f0;fill-opacity:1;fill-rule:nonzero;stroke:none"
           d="m 0,0 c -0.08,1.069 -0.256,2.105 -0.368,3.168 -0.142,1.369 -0.27,2.75 -0.47,4.102 -0.241,1.596 -0.548,3.158 -0.862,4.728 -0.261,1.317 -0.51,2.641 -0.829,3.941 -0.384,1.571 -0.842,3.091 -1.305,4.625 -0.376,1.25 -0.735,2.512 -1.166,3.754 -0.526,1.516 -1.139,2.989 -1.745,4.481 -0.477,1.188 -0.925,2.388 -1.45,3.541 -0.68,1.493 -1.453,2.918 -2.201,4.359 -0.567,1.1 -1.101,2.207 -1.706,3.279 -0.838,1.465 -1.771,2.866 -2.681,4.28 -0.628,0.981 -1.21,1.991 -1.881,2.941 -1.052,1.508 -2.202,2.941 -3.333,4.369 -0.621,0.793 -1.193,1.62 -1.843,2.383 -1.656,1.964 -3.41,3.855 -5.22,5.676 -0.366,0.377 -0.732,0.744 -1.107,1.101 -1.835,1.79 -3.724,3.525 -5.703,5.16 -0.812,0.676 -1.69,1.274 -2.532,1.926 -1.405,1.094 -2.798,2.188 -4.256,3.192 -1.008,0.695 -2.059,1.293 -3.095,1.946 -1.381,0.866 -2.739,1.759 -4.162,2.561 -1.125,0.621 -2.289,1.167 -3.438,1.743 -1.401,0.713 -2.79,1.454 -4.231,2.081 -1.214,0.54 -2.467,0.997 -3.695,1.482 -1.441,0.572 -2.878,1.157 -4.351,1.653 -1.285,0.429 -2.598,0.786 -3.906,1.162 -1.486,0.432 -2.967,0.87 -4.482,1.237 -1.347,0.31 -2.719,0.557 -4.09,0.813 -1.524,0.295 -3.043,0.582 -4.594,0.796 -1.403,0.194 -2.813,0.315 -4.23,0.448 -1.038,0.088 -2.051,0.254 -3.095,0.326 -1.353,6.993 -2.049,14.09 -2.049,21.108 v 20.413 h 31.301 v 0.01 h 3.191 c 0,0.542 0.03,0.607 0.374,1.221 0.563,1.01 1.419,2.544 1.419,5.205 0,2.664 -0.856,4.192 -1.419,5.206 -0.344,0.614 -0.374,0.677 -0.374,1.228 0,0.532 0.03,0.598 0.374,1.209 0.563,1.015 1.426,2.539 1.426,5.209 0,2.671 -0.852,4.195 -1.426,5.198 -0.344,0.614 -0.374,0.67 -0.374,1.205 0,0.532 0.037,0.599 0.374,1.201 0.574,1.014 1.426,2.539 1.426,5.208 0,2.662 -0.852,4.185 -1.426,5.19 -0.337,0.615 -0.374,0.677 -0.374,1.212 0,0.526 0.03,0.582 0.374,1.188 0.574,1.012 1.426,2.535 1.426,5.206 h -4.984 -3.18 -1.442 c 0.868,6.256 0.923,12.572 0.182,18.839 17.523,-2.391 52.628,-6.593 83.185,-6.593 30.235,0 64.637,4.043 82.496,6.458 -0.725,-6.225 -0.671,-12.493 0.199,-18.704 h -6.321 v -0.009 h -3.19 c 0,-0.541 -0.031,-0.603 -0.374,-1.226 -0.568,-1.006 -1.419,-2.536 -1.419,-5.198 0,-2.673 0.851,-4.193 1.419,-5.208 0.343,-0.612 0.374,-0.676 0.374,-1.226 0,-0.537 -0.031,-0.597 -0.374,-1.212 -0.568,-1.012 -1.419,-2.535 -1.419,-5.205 0,-2.666 0.851,-4.186 1.419,-5.2 0.343,-0.606 0.374,-0.67 0.374,-1.205 0,-0.533 -0.031,-0.595 -0.374,-1.212 -0.568,-1 -1.419,-2.536 -1.419,-5.197 0,-2.669 0.851,-4.185 1.419,-5.188 0.343,-0.606 0.374,-0.673 0.374,-1.203 0,-0.539 -0.024,-0.584 -0.374,-1.205 -0.568,-1.006 -1.419,-2.53 -1.419,-5.192 h 4.983 3.181 30.831 v -20.41 c 0,-7.027 -0.696,-14.128 -2.067,-21.184 -1.05,-0.079 -2.063,-0.255 -3.108,-0.36 -1.371,-0.146 -2.735,-0.279 -4.083,-0.477 -1.563,-0.241 -3.094,-0.543 -4.632,-0.853 -1.315,-0.265 -2.631,-0.518 -3.931,-0.838 -1.53,-0.372 -3.028,-0.829 -4.527,-1.282 -1.252,-0.381 -2.513,-0.733 -3.748,-1.165 -1.5,-0.518 -2.959,-1.126 -4.423,-1.721 C 98.669,80.014 97.481,79.561 96.333,79.054 94.86,78.381 93.431,77.607 91.998,76.873 90.923,76.304 89.821,75.781 88.76,75.193 87.302,74.349 85.873,73.405 84.455,72.494 83.505,71.893 82.524,71.328 81.6,70.688 80.056,69.604 78.579,68.434 77.095,67.27 76.362,66.688 75.598,66.16 74.887,65.57 70.567,61.949 66.579,57.965 62.968,53.642 62.38,52.947 61.867,52.198 61.3,51.489 60.129,50 58.941,48.512 57.849,46.937 57.211,46.021 56.655,45.055 56.047,44.115 55.125,42.688 54.19,41.263 53.344,39.784 52.747,38.725 52.23,37.643 51.671,36.564 50.919,35.122 50.155,33.7 49.487,32.22 48.96,31.07 48.521,29.873 48.045,28.696 47.445,27.244 46.84,25.785 46.32,24.285 45.889,23.041 45.532,21.773 45.15,20.509 44.705,19.023 44.231,17.535 43.872,16.021 43.546,14.703 43.291,13.365 43.02,12.022 42.718,10.51 42.423,9.01 42.181,7.472 41.977,6.086 41.842,4.682 41.696,3.287 41.595,2.271 41.417,1.287 41.339,0.266 27.64,-2.461 13.664,-2.527 0,0" />
      </g>
      <g
         transform="translate(1045.7881,4488.8389)"
         id="g514">
        <path
           inkscape:connector-curvature="0"
           id="path516"
           style="fill:#f8f4f0;fill-opacity:1;fill-rule:nonzero;stroke:none"
           d="m 0,0 c 0.055,0.518 0.072,1.053 0.133,1.562 0.128,1.061 0.288,2.105 0.456,3.149 0.247,1.556 0.526,3.085 0.844,4.598 0.241,1.072 0.485,2.13 0.757,3.183 0.376,1.453 0.782,2.893 1.237,4.327 0.335,1.053 0.669,2.106 1.045,3.144 0.492,1.388 1.037,2.75 1.609,4.097 0.423,1.022 0.846,2.044 1.298,3.04 0.619,1.33 1.285,2.638 1.973,3.921 0.508,0.956 0.996,1.938 1.537,2.872 0.744,1.289 1.556,2.531 2.361,3.775 0.573,0.887 1.106,1.799 1.714,2.641 0.915,1.296 1.899,2.543 2.878,3.795 0.581,0.738 1.123,1.5 1.731,2.216 1.394,1.664 2.87,3.259 4.385,4.808 0.486,0.496 0.971,0.981 1.459,1.459 1.538,1.499 3.116,2.967 4.768,4.347 0.741,0.62 1.53,1.185 2.294,1.785 1.221,0.955 2.442,1.928 3.714,2.812 0.878,0.623 1.797,1.179 2.713,1.772 1.218,0.789 2.431,1.577 3.682,2.301 0.973,0.568 1.97,1.07 2.975,1.596 1.259,0.662 2.519,1.309 3.811,1.917 1.035,0.475 2.103,0.919 3.157,1.362 1.309,0.542 2.622,1.059 3.963,1.546 1.084,0.387 2.183,0.748 3.284,1.098 1.372,0.426 2.751,0.807 4.145,1.176 1.118,0.283 2.249,0.562 3.382,0.795 1.425,0.309 2.877,0.574 4.33,0.797 1.14,0.182 2.294,0.367 3.434,0.503 0.48,0.055 0.966,0.073 1.452,0.12 C 66.204,39.55 36.96,10.308 0,0" />
      </g>
      <g
         transform="translate(1137.2568,4627.6445)"
         id="g518">
        <path
           inkscape:connector-curvature="0"
           id="path520"
           style="fill:#f8f4f0;fill-opacity:1;fill-rule:nonzero;stroke:none"
           d="m 0,0 c 0,-2.251 -1.832,-4.082 -4.082,-4.082 h -2.727 -33.252 c -0.255,1.618 -0.853,2.669 -1.27,3.436 -0.349,0.62 -0.376,0.669 -0.376,1.203 0,0.534 0.034,0.603 0.376,1.212 0.568,1.013 1.42,2.535 1.42,5.197 0,2.67 -0.852,4.186 -1.42,5.196 -0.342,0.609 -0.376,0.671 -0.376,1.208 0,0.55 0.034,0.611 0.376,1.223 0.568,1.007 1.42,2.541 1.42,5.203 0,2.279 -0.613,3.697 -1.149,4.691 h 34.267 2.728 c 2.245,0 4.08,-1.834 4.08,-4.079 L 0.015,0 Z" />
      </g>
      <g
         transform="translate(1031.2451,4507.3818)"
         id="g522">
        <path
           inkscape:connector-curvature="0"
           id="path524"
           style="fill:#00354b;fill-opacity:1;fill-rule:nonzero;stroke:none"
           d="m 0,0 c -1.077,0.344 -2.225,-0.23 -2.585,-1.294 -0.038,-0.124 -0.079,-0.301 -0.095,-0.421 -0.134,-1.123 0.654,-2.144 1.778,-2.286 0.09,-0.019 0.168,-0.019 0.256,-0.019 0.94,0 1.769,0.655 1.978,1.569 C 1.592,-1.418 1.02,-0.342 0,0" />
      </g>
      <g
         transform="translate(1101.9463,4575.9482)"
         id="g526">
        <path
           inkscape:connector-curvature="0"
           id="path528"
           style="fill:#00354b;fill-opacity:1;fill-rule:nonzero;stroke:none"
           d="M 0,0 C 0.088,0 0.168,0.007 0.254,0.016 0.383,0.033 0.559,0.071 0.684,0.117 1.752,0.469 2.503,1.666 2.153,2.735 1.795,3.801 0.823,4.433 -0.253,4.063 -1.371,3.93 -2.176,2.91 -2.04,1.786 -1.897,0.759 -1.012,0 0,0" />
      </g>
      <g
         transform="translate(1107.8477,4579.7988)"
         id="g530">
        <path
           inkscape:connector-curvature="0"
           id="path532"
           style="fill:#00354b;fill-opacity:1;fill-rule:nonzero;stroke:none"
           d="m 0,0 c 0,-1.126 0.917,-2.041 2.039,-2.041 0.112,0 0.263,0.017 0.376,0.032 0.056,0.009 0.096,0.047 0.15,0.056 h 0.018 v 0.007 C 3.609,-1.683 4.417,-0.702 4.24,0.353 4.058,1.466 3.139,2.222 2.039,2.041 1.889,2.041 1.753,1.985 1.609,1.95 L 1.593,2.007 C 1.522,1.985 1.475,1.936 1.385,1.914 1.267,1.874 1.163,1.812 1.052,1.745 0.955,1.69 0.862,1.635 0.781,1.56 0.636,1.444 0.51,1.296 0.39,1.13 0.365,1.103 0.34,1.076 0.327,1.046 0.134,0.732 0,0.392 0,0" />
      </g>
      <g
         transform="translate(1118.0518,4578.9678)"
         id="g534">
        <path
           inkscape:connector-curvature="0"
           id="path536"
           style="fill:#00354b;fill-opacity:1;fill-rule:nonzero;stroke:none"
           d="M 0,0 C 0.112,0 0.26,0.017 0.375,0.034 1.489,0.217 2.384,1.287 2.199,2.391 2.019,3.51 1.099,4.267 0,4.084 -1.124,4.084 -2.041,3.168 -2.041,2.043 -2.041,0.917 -1.124,0 0,0" />
      </g>
      <g
         transform="translate(1033.644,4515.3477)"
         id="g538">
        <path
           inkscape:connector-curvature="0"
           id="path540"
           style="fill:#00354b;fill-opacity:1;fill-rule:nonzero;stroke:none"
           d="m 0,0 c -1.067,0.358 -2.176,-0.104 -2.536,-1.173 -0.509,-1.012 -0.095,-2.23 0.917,-2.741 0.288,-0.144 0.598,-0.218 0.912,-0.218 0.753,0 1.464,0.413 1.817,1.124 0.046,0.079 0.094,0.215 0.127,0.306 C 1.594,-1.626 1.07,-0.358 0,0" />
      </g>
      <g
         transform="translate(1037.8701,4520.2822)"
         id="g542">
        <path
           inkscape:connector-curvature="0"
           id="path544"
           style="fill:#00354b;fill-opacity:1;fill-rule:nonzero;stroke:none"
           d="m 0,0 c 0.361,1.07 -0.225,2.225 -1.292,2.585 -0.997,0.31 -2.09,-0.161 -2.512,-1.108 -0.414,-0.903 -0.128,-1.988 0.718,-2.561 0.351,-0.23 0.757,-0.344 1.133,-0.344 0.661,0 1.308,0.318 1.697,0.917 C -0.15,-0.375 -0.058,-0.167 0,0" />
      </g>
      <g
         transform="translate(1042.7739,4533.4932)"
         id="g546">
        <path
           inkscape:connector-curvature="0"
           id="path548"
           style="fill:#00354b;fill-opacity:1;fill-rule:nonzero;stroke:none"
           d="m 0,0 c 0.294,-0.154 0.606,-0.217 0.921,-0.217 0.704,0 1.375,0.362 1.748,0.981 C 3.252,1.699 2.918,2.814 2.001,3.421 1.069,4.053 -0.272,3.666 -0.904,2.733 -1.413,1.721 -1.007,0.503 0,0" />
      </g>
      <g
         transform="translate(1048.4253,4539.9668)"
         id="g550">
        <path
           inkscape:connector-curvature="0"
           id="path552"
           style="fill:#00354b;fill-opacity:1;fill-rule:nonzero;stroke:none"
           d="M 0,0 C 0.525,0 1.047,0.2 1.443,0.597 1.538,0.687 1.65,0.829 1.724,0.94 2.345,1.874 2.209,3.285 1.277,3.905 0.335,4.535 -0.812,4.426 -1.44,3.485 -2.242,2.688 -2.242,1.396 -1.44,0.597 -1.043,0.2 -0.526,0 0,0" />
      </g>
      <g
         transform="translate(1053.6816,4546.2549)"
         id="g554">
        <path
           inkscape:connector-curvature="0"
           id="path556"
           style="fill:#00354b;fill-opacity:1;fill-rule:nonzero;stroke:none"
           d="M 0,0 C 0.516,0 1.044,0.198 1.442,0.6 L 1.474,0.625 C 2.271,1.42 2.254,2.705 1.458,3.502 0.658,4.293 -0.637,4.284 -1.445,3.487 -2.242,2.688 -2.242,1.396 -1.445,0.6 -1.046,0.198 -0.526,0 0,0" />
      </g>
      <g
         transform="translate(1094.1333,4573.4678)"
         id="g558">
        <path
           inkscape:connector-curvature="0"
           id="path560"
           style="fill:#00354b;fill-opacity:1;fill-rule:nonzero;stroke:none"
           d="M 0,0 C 0.223,0 0.432,0.038 0.646,0.107 L 0.677,0.111 C 1.763,0.471 2.314,1.619 1.954,2.688 1.604,3.755 0.432,4.338 -0.649,3.973 -1.715,3.619 -2.288,2.462 -1.937,1.39 -1.651,0.535 -0.854,0 0,0" />
      </g>
      <g
         transform="translate(1038.8594,4526.3262)"
         id="g562">
        <path
           inkscape:connector-curvature="0"
           id="path564"
           style="fill:#00354b;fill-opacity:1;fill-rule:nonzero;stroke:none"
           d="m 0,0 c 0.231,-0.073 0.43,-0.097 0.644,-0.097 0.752,0 1.452,0.415 1.801,1.085 C 2.966,1.912 2.693,3.092 1.801,3.685 0.853,4.286 -0.406,4.048 -1.03,3.108 -1.116,2.965 -1.228,2.757 -1.278,2.583 -1.644,1.515 -1.059,0.356 0,0" />
      </g>
      <g
         transform="translate(1059.436,4552.1074)"
         id="g566">
        <path
           inkscape:connector-curvature="0"
           id="path568"
           style="fill:#00354b;fill-opacity:1;fill-rule:nonzero;stroke:none"
           d="M 0,0 C 0.527,0 1.043,0.2 1.449,0.6 L 1.476,0.623 C 2.272,1.421 2.256,2.705 1.467,3.502 0.662,4.293 -0.637,4.278 -1.434,3.485 -2.233,2.688 -2.233,1.388 -1.434,0.6 -1.043,0.2 -0.517,0 0,0" />
      </g>
      <g
         transform="translate(1028.1665,4491.1094)"
         id="g570">
        <path
           inkscape:connector-curvature="0"
           id="path572"
           style="fill:#00354b;fill-opacity:1;fill-rule:nonzero;stroke:none"
           d="m 0,0 c -1.124,0.19 -2.177,-0.75 -2.369,-1.867 0,-1.115 0.915,-2.039 2.043,-2.039 1.078,0 1.946,0.821 2.033,1.867 C 1.825,-0.988 1.077,-0.177 0,0" />
      </g>
      <g
         transform="translate(1029.521,4499.4111)"
         id="g574">
        <path
           inkscape:connector-curvature="0"
           id="path576"
           style="fill:#00354b;fill-opacity:1;fill-rule:nonzero;stroke:none"
           d="m 0,0 c -1.073,0.344 -2.222,-0.222 -2.583,-1.294 -0.038,-0.12 -0.08,-0.294 -0.095,-0.423 -0.04,-0.303 0,-0.587 0.091,-0.851 0.213,-0.776 0.865,-1.375 1.702,-1.478 0.09,-0.011 0.177,-0.011 0.256,-0.011 1.015,0 1.889,0.754 2.027,1.784 L 1.342,-2.258 C 1.508,-1.303 0.973,-0.329 0,0" />
      </g>
      <g
         transform="translate(1065.6377,4557.4717)"
         id="g578">
        <path
           inkscape:connector-curvature="0"
           id="path580"
           style="fill:#00354b;fill-opacity:1;fill-rule:nonzero;stroke:none"
           d="M 0,0 C 0.44,0 0.886,0.146 1.251,0.433 2.113,1.081 2.33,2.297 1.732,3.199 1.101,4.141 -0.156,4.396 -1.099,3.765 -1.203,3.695 -1.347,3.582 -1.442,3.494 -2.229,2.697 -2.229,1.403 -1.442,0.606 -1.042,0.203 -0.526,0 0,0" />
      </g>
      <g
         transform="translate(1079.2329,4566.627)"
         id="g582">
        <path
           inkscape:connector-curvature="0"
           id="path584"
           style="fill:#00354b;fill-opacity:1;fill-rule:nonzero;stroke:none"
           d="M 0,0 C 0.215,0 0.431,0.032 0.646,0.103 0.812,0.169 1.019,0.265 1.162,0.36 2.102,0.981 2.358,2.249 1.737,3.19 1.14,4.075 -0.034,4.353 -0.956,3.835 -1.818,3.382 -2.256,2.353 -1.938,1.382 -1.65,0.544 -0.855,0 0,0" />
      </g>
      <g
         transform="translate(1086.5449,4570.3506)"
         id="g586">
        <path
           inkscape:connector-curvature="0"
           id="path588"
           style="fill:#00354b;fill-opacity:1;fill-rule:nonzero;stroke:none"
           d="M 0,0 C 0.285,0 0.586,0.055 0.858,0.19 1.808,0.613 2.301,1.69 1.966,2.702 1.609,3.77 0.451,4.346 -0.617,3.986 -0.782,3.922 -0.982,3.834 -1.134,3.729 -2.075,3.108 -2.331,1.841 -1.7,0.908 -1.302,0.319 -0.657,0 0,0" />
      </g>
      <g
         transform="translate(1072.2568,4562.3232)"
         id="g590">
        <path
           inkscape:connector-curvature="0"
           id="path592"
           style="fill:#00354b;fill-opacity:1;fill-rule:nonzero;stroke:none"
           d="M 0,0 C 0.438,0 0.885,0.145 1.25,0.43 2.113,1.068 2.328,2.288 1.73,3.195 1.1,4.127 -0.169,4.392 -1.101,3.762 -1.214,3.681 -1.348,3.58 -1.443,3.482 -2.241,2.692 -2.241,1.395 -1.443,0.598 -1.052,0.197 -0.525,0 0,0" />
      </g>
      <g
         transform="translate(938.2983,4577.4463)"
         id="g594">
        <path
           inkscape:connector-curvature="0"
           id="path596"
           style="fill:#00354b;fill-opacity:1;fill-rule:nonzero;stroke:none"
           d="m 0,0 c -1.076,0.359 -2.246,-0.224 -2.598,-1.285 -0.359,-1.068 0.2,-2.217 1.274,-2.571 l 0.033,-0.015 c 0.215,-0.076 0.43,-0.108 0.646,-0.108 0.852,0 1.65,0.552 1.937,1.405 C 1.649,-1.517 1.068,-0.359 0,0" />
      </g>
      <g
         transform="translate(923.5483,4580.9287)"
         id="g598">
        <path
           inkscape:connector-curvature="0"
           id="path600"
           style="fill:#00354b;fill-opacity:1;fill-rule:nonzero;stroke:none"
           d="M 0,0 C -0.113,0.166 -0.231,0.314 -0.391,0.43 -0.47,0.505 -0.565,0.561 -0.662,0.615 -0.774,0.682 -0.876,0.737 -0.996,0.784 -1.075,0.806 -1.131,0.855 -1.204,0.877 L -1.211,0.82 C -1.356,0.855 -1.49,0.911 -1.652,0.911 -2.749,1.092 -3.658,0.336 -3.85,-0.777 c -0.17,-1.055 0.627,-2.036 1.658,-2.299 v -0.007 h 0.018 c 0.053,-0.009 0.091,-0.047 0.15,-0.056 0.111,-0.015 0.261,-0.032 0.372,-0.032 1.135,0 2.043,0.915 2.043,2.041 0,0.392 -0.135,0.733 -0.319,1.033 C 0.048,-0.054 0.015,-0.027 0,0" />
      </g>
      <g
         transform="translate(930.0947,4580.0117)"
         id="g602">
        <path
           inkscape:connector-curvature="0"
           id="path604"
           style="fill:#00354b;fill-opacity:1;fill-rule:nonzero;stroke:none"
           d="m 0,0 c -1.076,0.369 -2.05,-0.263 -2.408,-1.328 -0.36,-1.069 0.398,-2.267 1.467,-2.618 0.119,-0.046 0.296,-0.084 0.422,-0.102 0.089,-0.009 0.176,-0.015 0.266,-0.015 1.011,0 1.89,0.758 2.013,1.786 C 1.905,-1.153 1.107,-0.134 0,0" />
      </g>
      <g
         transform="translate(913.7354,4583.0518)"
         id="g606">
        <path
           inkscape:connector-curvature="0"
           id="path608"
           style="fill:#00354b;fill-opacity:1;fill-rule:nonzero;stroke:none"
           d="m 0,0 c -1.109,0.183 -2.019,-0.574 -2.2,-1.693 -0.185,-1.104 0.708,-2.174 1.824,-2.357 0.101,-0.017 0.256,-0.034 0.376,-0.034 1.125,0 2.04,0.917 2.04,2.043 C 2.04,-0.916 1.13,0 0,0" />
      </g>
      <g
         transform="translate(945.8481,4574.3369)"
         id="g610">
        <path
           inkscape:connector-curvature="0"
           id="path612"
           style="fill:#00354b;fill-opacity:1;fill-rule:nonzero;stroke:none"
           d="m 0,0 c -1.07,0.359 -2.223,-0.221 -2.583,-1.284 -0.334,-1.012 0.16,-2.095 1.108,-2.512 0.271,-0.136 0.576,-0.19 0.862,-0.19 0.653,0 1.3,0.319 1.698,0.908 0.622,0.941 0.365,2.2 -0.564,2.834 C 0.376,-0.152 0.167,-0.053 0,0" />
      </g>
      <g
         transform="translate(982.0835,4543.8721)"
         id="g614">
        <path
           inkscape:connector-curvature="0"
           id="path616"
           style="fill:#00354b;fill-opacity:1;fill-rule:nonzero;stroke:none"
           d="m 0,0 c -0.939,-0.616 -1.074,-2.031 -0.452,-2.965 0.079,-0.111 0.182,-0.253 0.278,-0.344 0.399,-0.405 0.925,-0.596 1.442,-0.596 0.526,0 1.045,0.2 1.453,0.596 0.797,0.789 0.797,2.091 0,2.889 C 2.09,0.521 0.936,0.637 0,0" />
      </g>
      <g
         transform="translate(1001.4497,4503.3809)"
         id="g618">
        <path
           inkscape:connector-curvature="0"
           id="path620"
           style="fill:#00354b;fill-opacity:1;fill-rule:nonzero;stroke:none"
           d="M 0,0 C 1.117,0.134 1.916,1.153 1.771,2.286 1.753,2.406 1.714,2.583 1.673,2.707 1.317,3.786 0.168,4.345 -0.909,4.001 -1.929,3.659 -2.504,2.583 -2.24,1.55 -2.025,0.63 -1.195,-0.023 -0.252,-0.023 -0.167,-0.019 -0.086,-0.019 0,0" />
      </g>
      <g
         transform="translate(1000.6753,4514.1748)"
         id="g622">
        <path
           inkscape:connector-curvature="0"
           id="path624"
           style="fill:#00354b;fill-opacity:1;fill-rule:nonzero;stroke:none"
           d="m 0,0 c -0.356,1.068 -1.465,1.531 -2.533,1.173 -1.068,-0.359 -1.595,-1.626 -1.244,-2.693 0.032,-0.1 0.088,-0.224 0.128,-0.304 0.358,-0.722 1.077,-1.135 1.825,-1.135 0.302,0 0.613,0.08 0.918,0.225 C 0.091,-2.23 0.503,-1.012 0,0" />
      </g>
      <g
         transform="translate(997.7104,4521.7588)"
         id="g626">
        <path
           inkscape:connector-curvature="0"
           id="path628"
           style="fill:#00354b;fill-opacity:1;fill-rule:nonzero;stroke:none"
           d="m 0,0 c -0.419,0.947 -1.506,1.427 -2.513,1.108 -1.067,-0.36 -1.64,-1.514 -1.292,-2.585 0.065,-0.167 0.163,-0.375 0.259,-0.523 0.397,-0.594 1.044,-0.911 1.696,-0.911 0.391,0 0.784,0.109 1.133,0.339 C 0.143,-2 0.423,-0.902 0,0" />
      </g>
      <g
         transform="translate(1003.6196,4491.1094)"
         id="g630">
        <path
           inkscape:connector-curvature="0"
           id="path632"
           style="fill:#00354b;fill-opacity:1;fill-rule:nonzero;stroke:none"
           d="m 0,0 c -1.069,-0.177 -1.821,-0.988 -1.707,-2.039 0.089,-1.046 0.967,-1.867 2.034,-1.867 1.123,0 2.038,0.924 2.038,2.039 C 2.177,-0.75 1.124,0.19 0,0" />
      </g>
      <g
         transform="translate(994.2129,4528.9092)"
         id="g634">
        <path
           inkscape:connector-curvature="0"
           id="path636"
           style="fill:#00354b;fill-opacity:1;fill-rule:nonzero;stroke:none"
           d="m 0,0 c -0.057,0.167 -0.161,0.367 -0.256,0.518 -0.624,0.931 -1.881,1.185 -2.83,0.573 -0.893,-0.597 -1.169,-1.778 -0.645,-2.696 0.348,-0.668 1.05,-1.083 1.798,-1.083 0.218,0 0.425,0.032 0.648,0.105 C -0.226,-2.227 0.349,-1.068 0,0" />
      </g>
      <g
         transform="translate(1003.147,4495.3564)"
         id="g638">
        <path
           inkscape:connector-curvature="0"
           id="path640"
           style="fill:#00354b;fill-opacity:1;fill-rule:nonzero;stroke:none"
           d="M 0,0 C 0.848,0.109 1.501,0.711 1.718,1.48 1.795,1.74 1.827,2.035 1.795,2.331 1.778,2.458 1.74,2.623 1.699,2.752 1.342,3.833 0.191,4.387 -0.892,4.046 -1.848,3.719 -2.391,2.746 -2.23,1.758 H -2.28 C -2.151,0.723 -1.273,-0.029 -0.256,-0.029 -0.167,-0.013 -0.087,-0.013 0,0" />
      </g>
      <g
         transform="translate(970.8901,4555.6094)"
         id="g642">
        <path
           inkscape:connector-curvature="0"
           id="path644"
           style="fill:#00354b;fill-opacity:1;fill-rule:nonzero;stroke:none"
           d="m 0,0 c -0.797,-0.79 -0.812,-2.075 -0.015,-2.87 l 0.034,-0.032 c 0.398,-0.4 0.924,-0.589 1.44,-0.589 0.527,0 1.046,0.195 1.444,0.589 0.798,0.797 0.798,2.096 0,2.885 C 2.098,0.78 0.795,0.795 0,0" />
      </g>
      <g
         transform="translate(987.0098,4536.9141)"
         id="g646">
        <path
           inkscape:connector-curvature="0"
           id="path648"
           style="fill:#00354b;fill-opacity:1;fill-rule:nonzero;stroke:none"
           d="m 0,0 c -0.922,-0.606 -1.249,-1.729 -0.667,-2.657 0.381,-0.619 1.05,-0.981 1.745,-0.981 0.311,0 0.621,0.063 0.918,0.217 C 3,-2.918 3.416,-1.685 2.913,-0.687 2.282,0.245 0.943,0.636 0,0" />
      </g>
      <g
         transform="translate(960.6304,4566.085)"
         id="g650">
        <path
           inkscape:connector-curvature="0"
           id="path652"
           style="fill:#00354b;fill-opacity:1;fill-rule:nonzero;stroke:none"
           d="m 0,0 c -0.941,0.63 -2.2,0.374 -2.832,-0.566 -0.596,-0.908 -0.387,-2.127 0.478,-2.766 0.369,-0.285 0.806,-0.43 1.253,-0.43 0.519,0 1.044,0.198 1.443,0.598 0.797,0.788 0.797,2.088 0,2.885 C 0.245,-0.182 0.11,-0.081 0,0" />
      </g>
      <g
         transform="translate(967.2539,4561.2363)"
         id="g654">
        <path
           inkscape:connector-curvature="0"
           id="path656"
           style="fill:#00354b;fill-opacity:1;fill-rule:nonzero;stroke:none"
           d="m 0,0 c -0.938,0.623 -2.206,0.376 -2.827,-0.571 -0.6,-0.903 -0.393,-2.123 0.475,-2.768 0.368,-0.287 0.808,-0.426 1.254,-0.426 0.517,0 1.042,0.203 1.444,0.6 0.795,0.789 0.795,2.093 0,2.891 C 0.239,-0.183 0.106,-0.069 0,0" />
      </g>
      <g
         transform="translate(976.6396,4549.7656)"
         id="g658">
        <path
           inkscape:connector-curvature="0"
           id="path660"
           style="fill:#00354b;fill-opacity:1;fill-rule:nonzero;stroke:none"
           d="m 0,0 c -0.789,-0.797 -0.805,-2.079 -0.008,-2.879 l 0.026,-0.023 c 0.394,-0.411 0.92,-0.595 1.442,-0.595 0.525,0 1.048,0.197 1.45,0.595 0.796,0.797 0.796,2.09 0,2.883 C 2.102,0.782 0.812,0.788 0,0" />
      </g>
      <g
         transform="translate(953.5029,4570.4697)"
         id="g662">
        <path
           inkscape:connector-curvature="0"
           id="path664"
           style="fill:#00354b;fill-opacity:1;fill-rule:nonzero;stroke:none"
           d="m 0,0 c -0.933,0.521 -2.096,0.241 -2.688,-0.646 -0.63,-0.941 -0.375,-2.208 0.567,-2.832 0.151,-0.094 0.35,-0.196 0.517,-0.251 0.224,-0.082 0.43,-0.099 0.648,-0.099 0.851,0 1.65,0.546 1.946,1.396 C 1.309,-1.482 0.868,-0.453 0,0" />
      </g>
      <g
         transform="translate(1137.2568,4627.6445)"
         id="g666">
        <path
           inkscape:connector-curvature="0"
           id="path668"
           style="fill:#00354b;fill-opacity:1;fill-rule:nonzero;stroke:none"
           d="m 0,0 c 0,-2.251 -1.832,-4.082 -4.082,-4.082 h -2.727 -33.252 c -0.255,1.618 -0.853,2.669 -1.27,3.436 -0.349,0.62 -0.376,0.669 -0.376,1.203 0,0.534 0.034,0.603 0.376,1.212 0.568,1.013 1.42,2.535 1.42,5.197 0,2.67 -0.852,4.186 -1.42,5.196 -0.342,0.609 -0.376,0.671 -0.376,1.208 0,0.55 0.034,0.611 0.376,1.223 0.568,1.007 1.42,2.541 1.42,5.203 0,2.279 -0.613,3.697 -1.149,4.691 h 34.267 2.728 c 2.245,0 4.08,-1.834 4.08,-4.079 L 0.015,0 Z m -91.469,-138.806 c 0.055,0.518 0.072,1.053 0.134,1.562 0.127,1.061 0.287,2.105 0.455,3.149 0.247,1.556 0.526,3.085 0.844,4.598 0.241,1.072 0.486,2.131 0.758,3.184 0.376,1.453 0.781,2.892 1.236,4.327 0.335,1.052 0.669,2.105 1.045,3.143 0.492,1.388 1.037,2.75 1.609,4.097 0.424,1.022 0.846,2.044 1.298,3.04 0.619,1.33 1.285,2.639 1.973,3.921 0.509,0.956 0.996,1.938 1.537,2.872 0.744,1.289 1.556,2.531 2.361,3.775 0.573,0.887 1.106,1.799 1.714,2.641 0.915,1.297 1.9,2.543 2.878,3.796 0.581,0.737 1.124,1.5 1.731,2.216 1.394,1.664 2.871,3.258 4.385,4.807 0.486,0.496 0.971,0.982 1.459,1.459 1.538,1.499 3.116,2.967 4.768,4.347 0.741,0.62 1.531,1.185 2.294,1.785 1.221,0.955 2.442,1.929 3.715,2.813 0.878,0.623 1.796,1.178 2.712,1.771 1.218,0.789 2.431,1.577 3.683,2.301 0.972,0.568 1.969,1.07 2.974,1.597 1.259,0.662 2.519,1.308 3.811,1.917 1.035,0.474 2.103,0.918 3.157,1.361 1.309,0.542 2.623,1.059 3.963,1.547 1.084,0.386 2.183,0.748 3.285,1.097 1.371,0.426 2.751,0.807 4.145,1.176 1.117,0.283 2.248,0.563 3.381,0.795 1.426,0.31 2.877,0.574 4.331,0.797 1.139,0.183 2.293,0.367 3.434,0.503 0.479,0.056 0.965,0.073 1.451,0.12 -10.317,-36.964 -39.56,-66.206 -76.521,-76.514 m -49.775,-2.211 c -0.079,1.07 -0.256,2.106 -0.367,3.168 -0.143,1.37 -0.271,2.75 -0.471,4.102 -0.24,1.597 -0.547,3.158 -0.861,4.728 -0.262,1.318 -0.511,2.641 -0.829,3.942 -0.384,1.57 -0.843,3.091 -1.306,4.625 -0.376,1.25 -0.734,2.512 -1.165,3.754 -0.527,1.515 -1.14,2.988 -1.746,4.48 -0.477,1.189 -0.925,2.388 -1.45,3.541 -0.68,1.493 -1.453,2.918 -2.2,4.36 -0.568,1.099 -1.101,2.207 -1.707,3.278 -0.838,1.466 -1.77,2.866 -2.68,4.28 -0.628,0.982 -1.211,1.991 -1.881,2.942 -1.053,1.507 -2.202,2.94 -3.333,4.369 -0.621,0.793 -1.194,1.62 -1.844,2.383 -1.655,1.963 -3.409,3.854 -5.219,5.675 -0.367,0.377 -0.733,0.744 -1.108,1.101 -1.835,1.79 -3.723,3.525 -5.703,5.16 -0.812,0.677 -1.69,1.275 -2.532,1.927 -1.405,1.094 -2.797,2.187 -4.256,3.191 -1.008,0.696 -2.059,1.293 -3.095,1.947 -1.381,0.866 -2.739,1.758 -4.161,2.56 -1.125,0.621 -2.289,1.167 -3.439,1.743 -1.401,0.713 -2.79,1.454 -4.231,2.081 -1.214,0.54 -2.466,0.997 -3.694,1.483 -1.442,0.571 -2.878,1.156 -4.352,1.652 -1.285,0.43 -2.598,0.786 -3.906,1.162 -1.486,0.433 -2.967,0.87 -4.482,1.237 -1.346,0.31 -2.718,0.557 -4.09,0.813 -1.523,0.295 -3.043,0.582 -4.593,0.797 -1.404,0.193 -2.814,0.314 -4.231,0.447 -1.037,0.088 -2.051,0.254 -3.095,0.326 -1.353,6.993 -2.048,14.09 -2.048,21.109 v 20.413 h 31.3 v 0.01 h 3.191 c 0,0.542 0.03,0.606 0.374,1.22 0.563,1.01 1.42,2.544 1.42,5.205 0,2.664 -0.857,4.193 -1.42,5.206 -0.344,0.615 -0.374,0.677 -0.374,1.228 0,0.532 0.03,0.599 0.374,1.209 0.563,1.016 1.426,2.539 1.426,5.21 0,2.671 -0.852,4.194 -1.426,5.197 -0.344,0.614 -0.374,0.67 -0.374,1.205 0,0.532 0.037,0.6 0.374,1.201 0.574,1.014 1.426,2.539 1.426,5.208 0,2.663 -0.852,4.185 -1.426,5.191 -0.337,0.614 -0.374,0.677 -0.374,1.212 0,0.525 0.03,0.582 0.374,1.187 0.574,1.012 1.426,2.535 1.426,5.206 h -4.983 -3.181 -1.441 c 0.867,6.256 0.922,12.573 0.181,18.839 17.524,-2.39 52.628,-6.593 83.185,-6.593 30.235,0 64.637,4.043 82.496,6.458 -0.725,-6.224 -0.67,-12.493 0.2,-18.704 h -6.322 v -0.008 h -3.19 c 0,-0.542 -0.03,-0.604 -0.374,-1.227 -0.567,-1.006 -1.419,-2.535 -1.419,-5.197 0,-2.673 0.852,-4.194 1.419,-5.208 0.344,-0.613 0.374,-0.677 0.374,-1.227 0,-0.537 -0.03,-0.597 -0.374,-1.212 -0.567,-1.012 -1.419,-2.535 -1.419,-5.205 0,-2.666 0.852,-4.185 1.419,-5.199 0.344,-0.607 0.374,-0.671 0.374,-1.205 0,-0.533 -0.03,-0.596 -0.374,-1.213 -0.567,-1 -1.419,-2.535 -1.419,-5.196 0,-2.669 0.852,-4.186 1.419,-5.189 0.344,-0.605 0.374,-0.673 0.374,-1.203 0,-0.539 -0.024,-0.584 -0.374,-1.205 -0.567,-1.006 -1.419,-2.529 -1.419,-5.191 h 4.983 3.181 30.831 v -20.411 c 0,-7.027 -0.695,-14.128 -2.067,-21.183 -1.05,-0.079 -2.062,-0.256 -3.108,-0.361 -1.37,-0.146 -2.735,-0.279 -4.083,-0.477 -1.563,-0.24 -3.093,-0.543 -4.632,-0.853 -1.314,-0.264 -2.63,-0.517 -3.93,-0.838 -1.531,-0.372 -3.028,-0.829 -4.528,-1.282 -1.251,-0.381 -2.513,-0.732 -3.748,-1.165 -1.5,-0.517 -2.959,-1.126 -4.422,-1.72 -1.176,-0.482 -2.364,-0.935 -3.511,-1.442 -1.474,-0.673 -2.903,-1.446 -4.336,-2.181 -1.075,-0.569 -2.177,-1.091 -3.237,-1.679 -1.459,-0.845 -2.888,-1.788 -4.306,-2.699 -0.949,-0.602 -1.93,-1.166 -2.855,-1.807 -1.544,-1.083 -3.021,-2.254 -4.504,-3.418 -0.734,-0.582 -1.498,-1.109 -2.209,-1.699 -4.319,-3.621 -8.308,-7.606 -11.918,-11.929 -0.589,-0.694 -1.101,-1.443 -1.668,-2.152 -1.171,-1.49 -2.36,-2.978 -3.452,-4.553 -0.637,-0.915 -1.193,-1.882 -1.801,-2.821 -0.922,-1.428 -1.858,-2.853 -2.703,-4.331 -0.598,-1.06 -1.114,-2.142 -1.674,-3.22 -0.752,-1.443 -1.515,-2.864 -2.184,-4.345 -0.526,-1.149 -0.966,-2.347 -1.441,-3.523 -0.601,-1.452 -1.205,-2.911 -1.725,-4.411 -0.431,-1.245 -0.789,-2.512 -1.17,-3.777 -0.446,-1.485 -0.92,-2.973 -1.279,-4.488 -0.325,-1.317 -0.581,-2.655 -0.852,-3.998 -0.301,-1.513 -0.597,-3.013 -0.839,-4.551 -0.204,-1.386 -0.339,-2.79 -0.485,-4.184 -0.101,-1.017 -0.278,-2 -0.357,-3.022 -13.699,-2.727 -27.675,-2.793 -41.339,-0.266 m -86.034,78.818 c 0.527,-0.048 1.06,-0.061 1.579,-0.108 1.15,-0.125 2.279,-0.292 3.414,-0.458 1.505,-0.222 3.004,-0.468 4.488,-0.764 1.114,-0.232 2.231,-0.478 3.331,-0.754 1.459,-0.362 2.903,-0.761 4.332,-1.193 1.072,-0.318 2.144,-0.651 3.204,-1.016 1.407,-0.487 2.808,-1.029 4.177,-1.59 1.02,-0.421 2.041,-0.818 3.043,-1.274 1.382,-0.625 2.721,-1.301 4.063,-1.985 0.936,-0.496 1.896,-0.965 2.827,-1.484 1.357,-0.774 2.663,-1.612 3.978,-2.449 0.845,-0.542 1.708,-1.053 2.527,-1.617 1.413,-0.97 2.767,-2.034 4.116,-3.087 0.652,-0.509 1.339,-0.988 1.977,-1.514 3.914,-3.244 7.535,-6.841 10.819,-10.724 0.541,-0.641 1.034,-1.338 1.563,-2.01 1.061,-1.324 2.112,-2.645 3.093,-4.039 0.58,-0.828 1.098,-1.7 1.659,-2.552 0.838,-1.284 1.672,-2.575 2.447,-3.905 0.541,-0.933 1.037,-1.916 1.539,-2.872 0.692,-1.308 1.369,-2.623 1.992,-3.969 0.47,-1.022 0.9,-2.066 1.332,-3.104 0.567,-1.349 1.109,-2.7 1.594,-4.088 0.383,-1.087 0.742,-2.17 1.076,-3.276 0.44,-1.395 0.837,-2.808 1.206,-4.243 0.287,-1.107 0.548,-2.247 0.788,-3.379 0.311,-1.459 0.565,-2.944 0.798,-4.418 0.182,-1.15 0.358,-2.295 0.494,-3.467 0.063,-0.521 0.079,-1.045 0.13,-1.563 -37.521,10.053 -67.186,39.467 -77.586,76.902 m -13.561,58.117 c -2.249,0 -4.083,1.831 -4.083,4.082 v 20.408 c 0,2.245 1.834,4.079 4.083,4.079 h 1.363 4.081 30.536 c 0.263,-1.615 0.851,-2.67 1.281,-3.432 0.347,-0.615 0.376,-0.673 0.376,-1.197 0,-0.542 -0.037,-0.608 -0.379,-1.22 -0.56,-1.004 -1.42,-2.53 -1.42,-5.198 0,-2.662 0.853,-4.195 1.42,-5.199 0.35,-0.621 0.373,-0.668 0.373,-1.203 0,-0.543 -0.031,-0.605 -0.373,-1.223 -0.567,-1.007 -1.42,-2.533 -1.42,-5.194 0,-2.28 0.605,-3.702 1.147,-4.703 h -31.541 -4.081 z m 9.527,40.818 c 0,5.359 2.622,10.083 6.618,13.067 0.582,-5.706 0.463,-11.453 -0.384,-17.149 h -6.234 z m 14.392,-4.082 h -4.058 c 0.893,6.403 0.933,12.859 0.134,19.272 1.252,0.485 2.575,0.786 3.946,0.947 0.982,-6.712 0.982,-13.505 -0.022,-20.219 m 8.163,0 h -4.057 c 0.932,6.648 0.95,13.37 0.048,20.028 1.091,-0.161 2.478,-0.366 4.13,-0.597 0.867,-6.461 0.835,-12.981 -0.121,-19.431 m 182.457,0 c -1.005,6.753 -1.005,13.587 -0.01,20.339 1.381,-0.077 2.698,-0.351 3.965,-0.748 -0.838,-6.51 -0.801,-13.084 0.094,-19.591 z m -8.165,0 c -0.941,6.403 -0.982,12.873 -0.136,19.279 1.602,0.233 2.984,0.429 4.138,0.598 -0.892,-6.608 -0.862,-13.266 0.065,-19.877 z m 23.573,4.082 v -4.082 h -7.245 c -0.877,5.909 -0.964,11.881 -0.312,17.804 4.529,-2.911 7.557,-7.949 7.557,-13.722 m 8.165,-4.217 v 4.217 c 0,13.505 -10.985,24.493 -24.493,24.493 l -0.644,-0.046 c -0.501,-0.092 -51.19,-8.121 -93.408,-8.121 -41.857,0 -92.565,8.038 -93.065,8.121 l -0.647,0.046 c -13.505,0 -24.492,-10.988 -24.492,-24.493 v -4.082 h -1.363 c -6.746,0 -12.246,-5.491 -12.246,-12.246 V 0 c 0,-6.755 5.5,-12.248 12.246,-12.248 h 1.363 v -20.408 c 0,-6.947 0.655,-13.939 1.892,-20.851 h -0.154 l 1.14,-5.104 0.695,-3.107 h 0.127 c 10.706,-42.35 44.201,-75.556 86.64,-85.873 v -0.129 l 3.125,-0.664 5.11,-1.095 -0.008,0.139 c 6.554,-1.108 13.194,-1.697 19.814,-1.697 6.942,0 13.919,0.653 20.806,1.888 l -0.007,-0.148 5.165,1.155 c 0.075,0.009 0.111,0.034 0.168,0.039 l 2.925,0.654 0.011,0.111 c 41.92,10.613 75.014,43.704 85.609,85.62 l 0.12,0.006 0.685,3.047 v 0.025 l 1.157,5.165 -0.152,-0.008 c 1.243,6.946 1.898,13.92 1.898,20.829 v 20.558 c 6.1,0.677 10.876,5.812 10.876,12.098 v 20.415 c 0,6.281 -4.786,11.418 -10.893,12.102" />
      </g>
    </g>
  </g>
</svg>
