<svg width="900" height="520" viewBox="0 0 900 520" xmlns="http://www.w3.org/2000/svg">
  <defs><linearGradient id="g" x1="0" y1="0" x2="1" y2="1"><stop stop-color="#F8D7DA"/><stop offset="1" stop-color="#FFF7EC"/></linearGradient></defs>
  <rect width="900" height="520" rx="44" fill="url(#g)"/>
  <circle cx="210" cy="170" r="72" fill="#F7B98B" opacity=".75"/>
  <circle cx="685" cy="130" r="58" fill="#98AA8A" opacity=".55"/>
  <path d="M450 114c-85 0-154 69-154 154s69 154 154 154 154-69 154-154-69-154-154-154z" fill="#fff" opacity=".86"/>
  <path d="M388 269c0-44 28-80 62-80s62 36 62 80-28 80-62 80-62-36-62-80z" fill="#F8D7DA"/>
  <circle cx="425" cy="249" r="8" fill="#3F352F"/><circle cx="475" cy="249" r="8" fill="#3F352F"/>
  <path d="M426 290c18 15 34 15 48 0" stroke="#3F352F" stroke-width="8" fill="none" stroke-linecap="round"/>
  <text x="450" y="455" text-anchor="middle" font-family="Georgia, serif" font-size="52" fill="#3F352F">Baby Vazquez</text>
</svg>
